<?xml version="1.0" encoding="UTF-8"?>
<svg xmlns="http://www.w3.org/2000/svg" width="700" height="700" viewBox="0 0 700 600">
  <path d="M350 28C211.05 28 98 141.05 98 280s113.05 252 252 252 252-113.05 252-252S488.95 28 350 28zm50.328 435.81c-1.3164 0-2.3906-1.0742-2.3906-2.3906v-16.25c0-1.3164 1.0742-2.3906 2.3906-2.3906h16.25c1.3164 0 2.3906 1.0742 2.3906 2.3906v16.25c0 1.3164-1.0742 2.3906-2.3906 2.3906zm53.457-313.16h-38.293c-3.9141 0-7.1016-3.1875-7.1016-7.1016v-21.039c10.586-.26172 19.117-8.9023 19.117-19.551v-16.25c0-10.801-8.793-19.594-19.602-19.594h-16.25c-10.809 0-19.602 8.793-19.602 19.594v16.25c0 10.641 8.5391 19.285 19.117 19.551v21.039c0 13.402 10.902 24.309 24.309 24.309h38.293c3.9141 0 7.1016 3.1875 7.1016 7.1016v82.336c0 13.406 10.902 24.309 24.309 24.309h19.531c-.20312 1.6406-.33203 3.3047-.33203 4.9961v34.445c-10.594.24609-19.145 8.8984-19.145 19.551v16.25c0 10.801 8.793 19.594 19.594 19.594h16.25c10.801 0 19.594-8.793 19.594-19.594l.011719-16.246c0-10.629-8.5234-19.27-19.09-19.543v-34.453c0-1.7188.19141-3.3867.55469-4.9961h50.719c-.69922 98.867-66.062 182.63-155.83 211.01v-11.633c10.586-.25781 19.125-8.9023 19.125-19.551v-16.25c0-10.801-8.793-19.594-19.594-19.594h-16.25c-10.801 0-19.594 8.793-19.594 19.594v16.25c0 10.641 8.5352 19.285 19.113 19.551v16.27c-16.039 3.6797-32.703 5.6914-49.84 5.6914-122.92-.011719-222.93-100.02-222.93-222.94 0-17.809 2.1602-35.117 6.125-51.727h75.531v48.754c0 13.441 10.938 24.375 24.375 24.375h15.871c.50781 10.355 9.0234 18.641 19.5 18.641h16.25c10.801 0 19.594-8.793 19.594-19.602v-16.25c0-10.809-8.793-19.602-19.594-19.602h-16.25c-10.801 0-19.594 8.793-19.594 19.602h-15.773c-3.9531 0-7.168-3.2148-7.168-7.168v-114.71c0-3.9531 3.2148-7.168 7.168-7.168h22.461v.47656c0 10.809 8.793 19.602 19.594 19.602h16.25c10.801 0 19.594-8.793 19.594-19.602v-16.25c0-10.809-8.793-19.602-19.594-19.602h-16.25c-10.316 0-18.703 8.0352-19.449 18.168h-22.605c-13.441 0-24.375 10.938-24.375 24.375v48.754h-70.699c29.109-89.273 113.1-153.99 211.96-153.99 117.67 0 214.27 91.66 222.31 207.32l-87.117.003906c-3.9141 0-7.1016-3.1875-7.1016-7.1055v-82.34c0-13.402-10.902-24.305-24.309-24.305zm-64.52-47.695v-16.25c0-1.3164 1.0742-2.3906 2.3906-2.3906h16.25c1.3203 0 2.3906 1.0742 2.3906 2.3906v16.25c0 1.3164-1.0742 2.3906-2.3906 2.3906h-16.25c-1.3125 0-2.3906-1.0742-2.3906-2.3906zm131.84 235.25c1.3164 0 2.3906 1.0742 2.3906 2.3906v16.25c0 1.3164-1.0742 2.3906-2.3906 2.3906h-16.25c-1.3164 0-2.3906-1.0742-2.3906-2.3906v-16.246c0-1.3164 1.0742-2.3906 2.3906-2.3906zm-255.01-37.754v-16.25c0-1.3203 1.0742-2.3906 2.3906-2.3906h16.25c1.3164 0 2.3906 1.0742 2.3906 2.3906v16.25c0 1.3203-1.0742 2.3906-2.3906 2.3906h-16.25c-1.3164 0-2.3906-1.0742-2.3906-2.3906zm6.6914-144.83v-16.25c0-1.3203 1.0742-2.3906 2.3906-2.3906h16.25c1.3164 0 2.3906 1.0742 2.3906 2.3906v16.25c0 1.3203-1.0742 2.3906-2.3906 2.3906h-16.25c-1.3203 0-2.3906-1.0664-2.3906-2.3906z"/>
  <path d="M342.35 184.68c-10.809 0-19.602 8.793-19.602 19.594v16.25c0 10.477 8.2891 18.988 18.641 19.5v22.086c0 20.559 16.727 37.277 37.277 37.277h1.4102v27.234c0 8.1758-6.6523 14.828-14.828 14.828h-97.012c-20.559 0-37.277 16.727-37.277 37.277v23.895h-1.4336c-10.809 0-19.602 8.793-19.602 19.594v16.262c0 10.801 8.793 19.594 19.602 19.594h16.25c10.809 0 19.602-8.793 19.602-19.594v-16.25c0-1.9648-.37891-3.8242-.91797-5.6172-2.207-7.3125-8.5234-12.777-16.289-13.738v-24.141c0-11.066 9.0039-20.074 20.074-20.074h59.27v25.859c-10.586.26172-19.117 8.9023-19.117 19.551v16.25c0 10.801 8.793 19.594 19.602 19.594h16.25c10.809 0 19.602-8.793 19.602-19.594v-16.25c0-10.641-8.5391-19.285-19.117-19.551v-25.859h20.539c17.664 0 32.031-14.375 32.031-32.039v-27.234h27.266c11.066 0 20.074 9.0039 20.074 20.074v34.41h-2.3867c-10.801 0-19.594 8.793-19.594 19.594v16.25c0 10.801 8.793 19.594 19.594 19.594h16.25c10.801 0 19.594-8.793 19.594-19.594v-16.25c0-9.6602-7.0391-17.664-16.25-19.258v-34.754c0-20.559-16.727-37.277-37.277-37.277h-45.883c-11.066 0-20.074-9.0039-20.074-20.074v-21.984c1.3711 0 2.7109-.14453 4.0039-.42188 8.8945-1.8555 15.59-9.7422 15.59-19.18v-16.25c0-10.801-8.793-19.594-19.602-19.594h-16.258zm-94.184 237.55v16.25c0 1.3164-1.0742 2.3906-2.3906 2.3906h-16.25c-1.3203 0-2.3906-1.0742-2.3906-2.3906v-16.25c0-1.3164 1.0742-2.3906 2.3906-2.3906h16.25c1.3164-.003906 2.3906 1.0742 2.3906 2.3906zm98.461-18.164v16.25c0 1.3164-1.0742 2.3906-2.3906 2.3906h-16.25c-1.3203 0-2.3906-1.0742-2.3906-2.3906v-16.25c0-1.3164 1.0742-2.3906 2.3906-2.3906h16.25c1.3203 0 2.3906 1.0781 2.3906 2.3906zm114.26-14.34c0 1.3164-1.0742 2.3906-2.3906 2.3906h-16.25c-1.3164 0-2.3906-1.0742-2.3906-2.3906v-16.25c0-1.3164 1.0742-2.3906 2.3906-2.3906h16.25c1.3164 0 2.3906 1.0742 2.3906 2.3906zm-99.894-185.449v16.25c0 1.3164-1.0742 2.3906-2.3906 2.3906h-16.25c-1.3203 0-2.3906-1.0742-2.3906-2.3906v-16.25c0-1.3164 1.0742-2.3906 2.3906-2.3906h16.25c1.3203 0 2.3906 1.0742 2.3906 2.3906z"/>
</svg>