<?xml version="1.0" encoding="UTF-8"?><svg id="a" xmlns="http://www.w3.org/2000/svg" viewBox="0 0 1809.8 2400"><defs><style>.b{fill:#ffca22;}.b,.c,.d{stroke-width:0px;}.c{fill:#ffe05f;}.d{fill:#ffd91f;}</style></defs><path class="b" d="M1336.1,6.3L6.4,1313.7c-13.5,13.3-4.2,36.3,14.7,36.4l826.7,7.3c16.8.1,26.8,18.8,17.6,32.9l-637.2,976.5c-13.6,20.8,13.5,44.1,32,27.5L1802.6,1013.6c14.5-13,5.3-37.1-14.2-37.1h-835.6c-15.6,0-25.9-16.3-19.2-30.4L1370.2,30.6c10.2-21.5-17.1-41-34.1-24.3Z"/><path class="d" d="M865.4,1390.3l-565.7,867.1L1730.6,976.4h-777.7c-15.6,0-34.4-.7-34.4-.7h-35.7c-15.6,0-25.9-16.3-19.2-30.4L1291.5,50.1,39,1281.6l843.2,6.8c25.8,0,32.4,19.7,23.2,33.8l-40,68.1"/><path class="c" d="M213.2,1200.9c28.1-31.3,500.4-535.5,557.2-570.7,56.8-35.2-81.1,200.1-289.4,397.6-208.3,197.4-338.1,251.5-267.8,173.1Z"/><path class="c" d="M817.7,595.1c-30.7-14,71-117.7,115.6-115.6,44.6,2-93.3,125.8-115.6,115.6Z"/><path class="c" d="M558.1,1929.9c20.5-32.4,367.9-556.2,413.5-596.4,45.6-40.1-42.5,191.9-199.5,400.5-157,208.7-265.3,276.9-214,195.9Z"/></svg>